{"asset":{"version":"2.0","generator":"GlobalWWIII tools/build-map-assets.mjs"},"extensionsUsed":["KHR_materials_unlit"],"scene":0,"scenes":[{"name":"cargo-ship","nodes":[0]}],"nodes":[{"name":"cargo-ship","mesh":0}],"meshes":[{"name":"cargo-ship","primitives":[{"attributes":{"POSITION":0},"indices":1,"material":0,"mode":4}]}],"materials":[{"name":"cargo-ship material","pbrMetallicRoughness":{"baseColorFactor":[0.08,0.48,0.78,1],"metallicFactor":0.15,"roughnessFactor":0.72},"extensions":{"KHR_materials_unlit":{}}}],"buffers":[{"uri":"data:application/octet-stream;base64,","byteLength":432}],"bufferViews":[{"buffer":0,"byteOffset":0,"byteLength":252,"target":34962},{"buffer":0,"byteOffset":252,"byteLength":180,"target":34963}],"accessors":[{"bufferView":0,"componentType":5126,"count":21,"type":"VEC3","min":[-0.31,0,-1.405],"max":[0.31,0.54,1]},{"bufferView":1,"componentType":5123,"count":90,"type":"SCALAR","min":[0],"max":[20]}]}
