{"asset":{"version":"2.0","generator":"GlobalWWIII tools/build-map-assets.mjs"},"extensionsUsed":["KHR_materials_unlit"],"scene":0,"scenes":[{"name":"freight-truck","nodes":[0]}],"nodes":[{"name":"freight-truck","mesh":0}],"meshes":[{"name":"freight-truck","primitives":[{"attributes":{"POSITION":0},"indices":1,"material":0,"mode":4}]}],"materials":[{"name":"freight-truck material","pbrMetallicRoughness":{"baseColorFactor":[0.98,0.62,0.15,1],"metallicFactor":0.15,"roughnessFactor":0.72},"extensions":{"KHR_materials_unlit":{}}}],"buffers":[{"uri":"data:application/octet-stream;base64,","byteLength":336}],"bufferViews":[{"buffer":0,"byteOffset":0,"byteLength":192,"target":34962},{"buffer":0,"byteOffset":192,"byteLength":144,"target":34963}],"accessors":[{"bufferView":0,"componentType":5126,"count":16,"type":"VEC3","min":[-0.41,0.14,-0.96],"max":[0.41,0.78,0.975]},{"bufferView":1,"componentType":5123,"count":72,"type":"SCALAR","min":[0],"max":[15]}]}
