{"asset":{"version":"2.0","generator":"GlobalWWIII tools/build-map-assets.mjs"},"extensionsUsed":["KHR_materials_unlit"],"scene":0,"scenes":[{"name":"industrial-plant","nodes":[0]}],"nodes":[{"name":"industrial-plant","mesh":0}],"meshes":[{"name":"industrial-plant","primitives":[{"attributes":{"POSITION":0},"indices":1,"material":0,"mode":4}]}],"materials":[{"name":"industrial-plant material","pbrMetallicRoughness":{"baseColorFactor":[0.47,0.54,0.61,1],"metallicFactor":0.15,"roughnessFactor":0.72},"extensions":{"KHR_materials_unlit":{}}}],"buffers":[{"uri":"data:application/octet-stream;base64,","byteLength":504}],"bufferViews":[{"buffer":0,"byteOffset":0,"byteLength":288,"target":34962},{"buffer":0,"byteOffset":288,"byteLength":216,"target":34963}],"accessors":[{"bufferView":0,"componentType":5126,"count":24,"type":"VEC3","min":[-0.85,0,-0.6],"max":[0.85,1.82,0.6]},{"bufferView":1,"componentType":5123,"count":108,"type":"SCALAR","min":[0],"max":[23]}]}
