{"asset":{"version":"2.0","generator":"GlobalWWIII tools/build-map-assets.mjs"},"extensionsUsed":["KHR_materials_unlit"],"scene":0,"scenes":[{"name":"military-unit","nodes":[0]}],"nodes":[{"name":"military-unit","mesh":0}],"meshes":[{"name":"military-unit","primitives":[{"attributes":{"POSITION":0},"indices":1,"material":0,"mode":4}]}],"materials":[{"name":"military-unit material","pbrMetallicRoughness":{"baseColorFactor":[0.16,0.72,0.98,1],"metallicFactor":0.15,"roughnessFactor":0.72},"extensions":{"KHR_materials_unlit":{}}}],"buffers":[{"uri":"data:application/octet-stream;base64,","byteLength":504}],"bufferViews":[{"buffer":0,"byteOffset":0,"byteLength":288,"target":34962},{"buffer":0,"byteOffset":288,"byteLength":216,"target":34963}],"accessors":[{"bufferView":0,"componentType":5126,"count":24,"type":"VEC3","min":[-0.6,0,-0.41],"max":[0.6,0.55,0.41]},{"bufferView":1,"componentType":5123,"count":108,"type":"SCALAR","min":[0],"max":[23]}]}
