{"asset":{"version":"2.0","generator":"GlobalWWIII tools/build-map-assets.mjs"},"extensionsUsed":["KHR_materials_unlit"],"scene":0,"scenes":[{"name":"port","nodes":[0]}],"nodes":[{"name":"port","mesh":0}],"meshes":[{"name":"port","primitives":[{"attributes":{"POSITION":0},"indices":1,"material":0,"mode":4}]}],"materials":[{"name":"port material","pbrMetallicRoughness":{"baseColorFactor":[0.1,0.78,0.72,1],"metallicFactor":0.15,"roughnessFactor":0.72},"extensions":{"KHR_materials_unlit":{}}}],"buffers":[{"uri":"data:application/octet-stream;base64,","byteLength":672}],"bufferViews":[{"buffer":0,"byteOffset":0,"byteLength":384,"target":34962},{"buffer":0,"byteOffset":384,"byteLength":288,"target":34963}],"accessors":[{"bufferView":0,"componentType":5126,"count":32,"type":"VEC3","min":[-0.725,0,-0.36],"max":[0.875,1.56,0.36]},{"bufferView":1,"componentType":5123,"count":144,"type":"SCALAR","min":[0],"max":[31]}]}
