{"asset":{"version":"2.0","generator":"GlobalWWIII tools/build-map-assets.mjs"},"extensionsUsed":["KHR_materials_unlit"],"scene":0,"scenes":[{"name":"unit-air","nodes":[0]}],"nodes":[{"name":"unit-air","mesh":0}],"meshes":[{"name":"unit-air","primitives":[{"attributes":{"POSITION":0},"indices":1,"material":0,"mode":4}]}],"materials":[{"name":"unit-air material","pbrMetallicRoughness":{"baseColorFactor":[0.62,0.82,0.98,1],"metallicFactor":0.15,"roughnessFactor":0.72},"extensions":{"KHR_materials_unlit":{}}}],"buffers":[{"uri":"data:application/octet-stream;base64,","byteLength":600}],"bufferViews":[{"buffer":0,"byteOffset":0,"byteLength":348,"target":34962},{"buffer":0,"byteOffset":348,"byteLength":252,"target":34963}],"accessors":[{"bufferView":0,"componentType":5126,"count":29,"type":"VEC3","min":[-0.825,0.05,-1.17],"max":[0.825,0.26,0.95]},{"bufferView":1,"componentType":5123,"count":126,"type":"SCALAR","min":[0],"max":[28]}]}
